# xmcd CD database file
#
# Track frame offsets:
#	150
#	12273
#	25141
#	38923
#	52227
#	65059
#	77834
#	91019
#	104839
#	117571
#	130249
#	144484
#	158265
#	172069
#	184680
#	197289
#	210237
#	224247
#	240312
#	254908
#	270033
#	281803
#	295966
#	310675
#
# Disc length: 4318 seconds
#
# Revision: 1
# Processed by: cddbd v1.5.1PL0 Copyright (c) Steve Scherf et al.
# Submitted via: jetAudio 5
#
DISCID=6310dc18
DTITLE=Various Artist - Barrelhouse Piano Blues and Stomps
DYEAR=1900
DGENRE=
TTITLE0=I'm Busy, You Can't Come In - Herve Duerson
TTITLE1=Avenue Strut - Herve Duerson
TTITLE2=Naptown Special - Herve Duerson
TTITLE3=Easy Drag - Herve Duerson
TTITLE4=Evening Chimes Waltz - Herve Duerson
TTITLE5=Texas Dream Blues (Dreamin' Of Texas) - Herve Duerson
TTITLE6=Ocean Wave Blues - Herve Duerson
TTITLE7=Dyin' In The Electric Chair - Herve Duerson
TTITLE8=You Broke My Heart Baby - Turner Parrish
TTITLE9=Heart-Breaker Blues - Turner Parrish
TTITLE10=Back-Biter Blues - Turner Parrish
TTITLE11=Wake Up In The Morning - Turner Parrish
TTITLE12=Western Traveler Blues - Turner Parrish
TTITLE13=Sympathizin' Blues (Sorry Blues) - Turner Parrish
TTITLE14=Easy Papa - Turner Parrish
TTITLE15=You'll Be Sorry Some Day - Herve Duerson
TTITLE16=Graveyard Blues - Turner Parrish
TTITLE17=Ain't Gonna Be Your Dog No More - Turner Parrish
TTITLE18=Trenches - Turner Parrish
TTITLE19=Fives - Turner Parrish
TTITLE20=Dupree Blues - Kingfish Bill Tomlin
TTITLE21=Army Blues - Kingfish Bill Tomlin
TTITLE22=Hot Box - Kingfish Bill Tomlin
TTITLE23=Mean And Unkind Blues - Kingfish Bill Tomlin
EXTD=
EXTT0=
EXTT1=
EXTT2=
EXTT3=
EXTT4=
EXTT5=
EXTT6=
EXTT7=
EXTT8=
EXTT9=
EXTT10=
EXTT11=
EXTT12=
EXTT13=
EXTT14=
EXTT15=
EXTT16=
EXTT17=
EXTT18=
EXTT19=
EXTT20=
EXTT21=
EXTT22=
EXTT23=
PLAYORDER=
